# AST/ASF file generated using VICON BodyLanguage
# -----------------------------------------------
:version 1.10
:name VICON
:units
  mass 1.0
  length 0.45
  angle deg
:documentation
   .ast/.asf automatically generated from VICON data using
   VICON BodyBuilder and BodyLanguage model FoxedUp or BRILLIANT.MOD
:root
   order TX TY TZ RX RY RZ
   axis XYZ
   position 0 0 0  
   orientation 0 0 0 
:bonedata
  begin
     id 1 
     name lhipjoint
     direction 0.623529 -0.717805 0.309788 
     length 2.23224 
     axis 0 0 0  XYZ
  end
  begin
     id 2 
     name lfemur
     direction 0.34202 -0.939693 0  
     length 7.11402  
     axis 0 0 20  XYZ
    dof rx ry rz
    limits (-160.0 20.0)
           (-70.0 70.0)
           (-60.0 70.0)
  end
  begin
     id 3 
     name ltibia
     direction 0.34202 -0.939693 0   
     length 6.78496   
     axis 0 0 20   XYZ
    dof rx
    limits (-10.0 170.0)
  end
  begin
     id 4 
     name lfoot
     direction 0.125078 -0.343648 0.930732   
     length 1.84054   
     axis -90 7.62852e-016 20   XYZ
    dof rx rz
    limits (-45.0 90.0)
           (-70.0 20.0)
  end
  begin
     id 5 
     name ltoes
     direction 1.53565e-011 -4.21893e-011 1   
     length 0.916474   
     axis -90 7.62852e-016 20   XYZ
    dof rx
    limits (-90.0 20.0)
  end
  begin
     id 6 
     name rhipjoint
     direction -0.564688 -0.757748 0.327026   
     length 2.11457  
     axis 0 0 0  XYZ 
  end
  begin
     id 7 
     name rfemur
     direction -0.34202 -0.939693 0   
     length 7.14609   
     axis 0 0 -20   XYZ
    dof rx ry rz
    limits (-160.0 20.0)
           (-70.0 70.0)
           (-70.0 60.0)
  end
  begin
     id 8 
     name rtibia
     direction -0.34202 -0.939693 0   
     length 6.78101   
     axis 0 0 -20   XYZ
    dof rx
    limits (-10.0 170.0)
 end
 begin
     id 9 
     name rfoot
     direction -0.0992671 -0.272734 0.956955   
     length 1.96168  
     axis -90 -7.62852e-016 -20   XYZ
    dof rx rz
    limits (-45.0 90.0)
           (-20.0 70.0)
  end
  begin
     id 10 
     name rtoes
     direction -1.5356e-011 -4.21891e-011 1   
     length 0.982933   
     axis -90 -7.62852e-016 -20   XYZ
    dof rx
    limits (-90.0 20.0)
  end
  begin
     id 11 
     name lowerback
     direction -0.00596953 0.998668 0.0512524   
     length 1.87557   
     axis 0 0 0   XYZ
    dof rx ry rz
    limits (-20.0 45.0)
           (-30.0 30.0)
           (-30.0 30.0)
  end
  begin
     id 12 
     name upperback
     direction 0.00584879 0.999652 0.0257308   
     length 1.87883   
     axis 0 0 0   XYZ
    dof rx ry rz
    limits (-20.0 45.0)
           (-30.0 30.0)
           (-30.0 30.0)
  end
  begin
     id 13 
     name thorax
     direction 0.010104 0.999947 0.00178881   
     length 1.87779   
     axis 0 0 0   XYZ
    dof rx ry rz
    limits (-20.0 45.0)
           (-30.0 30.0)
           (-30.0 30.0)
  end
  begin
     id 14 
     name lowerneck
     direction 0.0120771 0.995934 -0.0892773   
     length 1.40897   
     axis 0 0 0   XYZ
    dof rx ry rz
    limits (-20.0 45.0)
           (-30.0 30.0)
           (-30.0 30.0)
  end
  begin
     id 15 
     name upperneck
     direction -0.030568 0.999465 -0.0116366   
     length 1.38661   
     axis 0 0 0   XYZ
    dof rx ry rz
    limits (-20.0 45.0)
           (-30.0 30.0)
           (-30.0 30.0)
  end
  begin
     id 16
     name head
     direction -0.0170715 0.999854 -0.00104426  
     length 1.47052  
     axis 0 0 0   XYZ
    dof rx ry rz
    limits (-20.0 45.0)
           (-30.0 30.0)
           (-30.0 30.0)
  end
  begin
     id 17 
     name lclavicle
     direction 0.977763 0.206143 0.038532  
     length 3.02424  
     axis 0 0 0   XYZ
    dof ry rz
    limits (-20.0 10.0)
           (0.0 20.0)
  end
  begin
     id 18 
     name lhumerus
     direction 1 -4.48965e-011 -2.62654e-027   
     length 4.68382   
     axis 180 -30 -90   XYZ
    dof rx ry rz
    limits (-60.0 90.0)
           (-90.0 90.0)
           (-90.0 90.0)
  end
  begin
     id 19
     name lradius
     direction 1 -4.48973e-011 -1.54954e-027   
     length 2.98124   
     axis 180 -30 -90   XYZ
    dof rx
    limits (-10.0 170.0)
  end
  begin
     id 20
     name lwrist
     direction 1 -4.48959e-011 7.20928e-028   
     length 1.49062   
     axis -5.52449e-016 90 90   XYZ
    dof ry
    limits (-180.0 0.0)
 end
  begin
     id 21 
     name lhand
     direction 1 -4.48971e-011 1.44186e-027   
     length 0.707595   
     axis -9.20027e-016 90 90   XYZ
    dof rx rz
    limits (-90.0 90.0)
           (-45.0 45.0)
  end
  begin
     id 22 
     name lfingers
     direction 1 -4.48985e-011 2.88371e-027   
     length 0.570481   
     axis -1.84005e-015 90 90   XYZ
    dof rx
    limits (0.0 90.0)
  end
  begin
     id 23
     name lthumb
     direction 0.707107 -6.34929e-011 0.707107   
     length 0.819101   
     axis -90 45 2.85299e-015   XYZ
    dof rx rz
    limits (-45.0 45.0)
           (-45.0 45.0)
  end
  begin
     id 24 
     name rclavicle
     direction -0.958661 0.284411 -0.00895327   
     length 3.11921  
     axis 0 0 0   XYZ 
    dof ry rz
    limits (-10.0 20.0)
           (-20.0 0.0)
  end
  begin
     id 25 
     name rhumerus
     direction -1 -4.48963e-011 -4.22193e-027  
     length 4.75876   
     axis 180 30 90   XYZ
    dof rx ry rz
    limits (-90.0 60.0)
           (-90.0 90.0)
           (-90.0 90.0)
  end
  begin
     id 26 
     name rradius
     direction -1 -4.48968e-011 -1.07616e-027   
     length 2.93293   
     axis 180 30 90   XYZ
    dof rx
    limits (-10.0 170.0)
  end
  begin
     id 27 
     name rwrist
     direction -1 -4.48965e-011 7.20928e-028   
     length 1.46647   
     axis -5.52449e-016 -90 -90   XYZ
    dof ry
    limits (-180.0 0.0)
  end
  begin
     id 28
     name rhand
     direction -1 -4.48971e-011 1.44186e-027   
     length 0.831748   
     axis -9.20027e-016 -90 -90   XYZ
    dof rx rz
    limits (-90.0 90.0)
           (-45.0 45.0)
  end
  begin
     id 29
     name rfingers
     direction -1 -4.48961e-011 2.88371e-027   
     length 0.670577   
     axis -1.84005e-015 -90 -90   XYZ
    dof rx
    limits (0.0 90.0)
  end
  begin
     id 30
     name rthumb
     direction -0.707107 -6.34929e-011 0.707107   
     length 0.962818   
     axis -90 -45 -2.85299e-015   XYZ
    dof rx rz
    limits (-45.0 45.0)
           (-45.0 45.0)
  end
:hierarchy
  begin
    root lhipjoint rhipjoint lowerback
    lhipjoint lfemur
    lfemur ltibia
    ltibia lfoot
    lfoot ltoes
    rhipjoint rfemur
    rfemur rtibia
    rtibia rfoot
    rfoot rtoes
    lowerback upperback
    upperback thorax
    thorax lowerneck lclavicle rclavicle
    lowerneck upperneck
    upperneck head
    lclavicle lhumerus
    lhumerus lradius
    lradius lwrist
    lwrist lhand lthumb
    lhand lfingers
    rclavicle rhumerus
    rhumerus rradius
    rradius rwrist
    rwrist rhand rthumb
    rhand rfingers
  end

#!OML:ASF E:\id_vita\Project 1\Capture day 1\Session 1\Female.ASF
:FULLY-SPECIFIED
:DEGREES
1
root -16.6866 16.5006 -3.77986 -157.92 -74.9242 172.048
lowerback -10.8377 0.375508 -6.54741
upperback -4.62996 0.93857 -0.468119
thorax 1.11899 0.447689 3.30235
lowerneck 0.64238 0.878964 -3.74506
upperneck 14.033 -0.00300658 7.65704
head 4.05203 0.00848754 2.96115
rclavicle 1.09743e-014 8.74653e-015
rhumerus -31.3605 -15.841 -87.299
rradius 15.9728
rwrist 29.9686
rhand -16.2839 11.7297
rfingers 7.12502
rthumb 9.92626 -18.0163
lclavicle 1.09743e-014 8.74653e-015
lhumerus -38.726 45.9017 63.8327
lradius 11.1932
lwrist -74.7025
lhand 0.677436 24.4779
lfingers 7.12502
lthumb 26.2391 52.6838
rfemur -14.7084 14.6847 17.655
rtibia 20.4208
rfoot -3.63547 -37.25
rtoes 0.260626
lfemur -23.8298 -13.687 -13.0122
ltibia 23.6675
lfoot -11.3719 18.627
ltoes -2.6235
2
root -16.6736 16.494 -3.78045 -157.914 -75.0451 172.089
lowerback -11.1085 0.433937 -6.47985
upperback -4.23701 1.06677 -0.503541
thorax 1.66869 0.492314 3.25051
lowerneck 0.33586 0.82589 -3.7675
upperneck 13.8539 -0.0388398 7.65978
head 4.05147 0.00178282 2.96421
rclavicle -1.93722e-014 -1.66979e-014
rhumerus -30.6989 -16.0186 -87.4083
rradius 15.8472
rwrist 29.765
rhand -16.4801 11.9718
rfingers 7.12502
rthumb 9.73694 -17.7832
lclavicle -1.93722e-014 -1.66979e-014
lhumerus -37.8793 46.4261 64.3589
lradius 11.0653
lwrist -75.0629
lhand 0.558994 24.5125
lfingers 7.12502
lthumb 26.1257 52.7353
rfemur -14.9718 14.5345 17.7299
rtibia 20.7187
rfoot -3.05452 -37.2812
rtoes -1.40738
lfemur -23.8917 -13.4306 -12.9813
ltibia 23.5194
lfoot -11.1293 18.3005
ltoes -4.31949
3
root -16.6651 16.4957 -3.78222 -157.878 -75.1565 172.115
lowerback -12.7842 0.584142 -6.18125
upperback -2.85053 1.47545 -0.712
thorax 4.01755 0.611247 2.96955
lowerneck -0.645505 0.59905 -3.75584
upperneck 12.9996 -0.225376 7.76415
head 3.96953 -0.0485147 2.98389
rclavicle 4.93234e-015 -2.10712e-014
rhumerus -28.4032 -16.5019 -88.0493
rradius 15.6899
rwrist 29.4558
rhand -16.3819 11.7852
rfingers 7.12502
rthumb 9.83173 -17.9653
lclavicle 4.93234e-015 -2.10712e-014
lhumerus -35.1133 48.0279 65.9216
lradius 10.7498
lwrist -76.2986
lhand 0.123318 24.5413
lfingers 7.12502
lthumb 25.7085 52.825
rfemur -15.1696 14.5055 17.7563
rtibia 20.9318
rfoot -2.97098 -37.3356
rtoes -1.65992
lfemur -23.9869 -13.2145 -12.9617
ltibia 23.4706
lfoot -10.9821 17.9993
ltoes -5.93623
4
root -16.656 16.4938 -3.7837 -157.66 -75.2606 171.938
lowerback -12.5639 0.645372 -6.14595
upperback -2.82372 1.54256 -0.769779
thorax 3.9215 0.648764 2.89475
lowerneck -0.592561 0.535404 -3.8979
upperneck 12.9369 -0.308956 7.83708
head 3.94622 -0.0938731 3.0266
rclavicle 2.75193e-014 -3.18055e-015
rhumerus -28.4328 -16.4423 -88.1558
rradius 15.8645
rwrist 29.2739
rhand -16.1263 11.5776
rfingers 7.12502
rthumb 10.0783 -18.1611
lclavicle 2.75193e-014 -3.18055e-015
lhumerus -34.3242 46.8983 66.9986
lradius 10.8115
lwrist -74.9073
lhand -0.333523 24.6458
lfingers 7.12502
lthumb 25.2709 52.992
rfemur -15.3256 14.3025 17.7511
rtibia 21.1007
rfoot -3.31347 -37.2649
rtoes -1.20097
lfemur -24.0672 -12.8384 -13.0523
ltibia 23.4563
lfoot -10.8807 17.6341
ltoes -7.75171
5
root -16.6481 16.4908 -3.78363 -157.399 -75.3183 171.857
lowerback -12.626 0.669033 -6.11488
upperback -2.71059 1.58538 -0.80025
thorax 4.07292 0.665089 2.85482
lowerneck -0.540706 0.492934 -4.04474
upperneck 12.6372 -0.343281 7.93185
head 3.84886 -0.113313 3.07631
rclavicle -1.4387e-014 -3.53837e-014
rhumerus -28.1605 -16.2246 -88.3554
rradius 15.8192
rwrist 29.0992
rhand -16.187 11.7007
rfingers 7.12502
rthumb 10.0197 -18.0407
lclavicle -1.4387e-014 -3.53837e-014
lhumerus -33.5507 46.2651 67.8686
lradius 10.7581
lwrist -73.9479
lhand -0.946597 24.7708
lfingers 7.12502
lthumb 24.6834 53.1987
rfemur -15.59 14.0149 17.7264
rtibia 21.2051
rfoot -3.68322 -37.0812
rtoes -0.746415
lfemur -24.3391 -12.4315 -13.0988
ltibia 23.5161
lfoot -11.0437 17.3272
ltoes -8.11046
6
root -16.6408 16.4924 -3.78353 -157.117 -75.3452 171.797
lowerback -12.6964 0.673509 -6.11821
upperback -2.6379 1.60347 -0.8159
thorax 4.18711 0.670003 2.84569
lowerneck -0.486053 0.516024 -4.15283
upperneck 12.3985 -0.299468 8.04601
head 3.76452 -0.0923177 3.12867
rclavicle -1.13307e-014 5.1684e-015
rhumerus -27.7632 -15.5105 -88.7118
rradius 15.5959
rwrist 28.4108
rhand -16.2972 11.9637
rfingers 7.12502
rthumb 9.91347 -17.7829
lclavicle -1.13307e-014 5.1684e-015
lhumerus -33.6593 47.1331 67.5124
lradius 10.6253
lwrist -74.7628
lhand -1.67387 24.7556
lfingers 7.12502
lthumb 23.9862 53.2771
rfemur -15.9097 13.8167 17.6769
rtibia 21.2807
rfoot -3.4862 -36.9526
rtoes -1.04302
lfemur -24.7 -12.2667 -13.0619
ltibia 23.6166
lfoot -11.2587 17.1703
ltoes -6.32381
7
root -16.63 16.4932 -3.78454 -156.951 -75.4234 171.702
lowerback -12.4098 0.694518 -6.15359
upperback -2.65063 1.61702 -0.838958
thorax 4.01455 0.683051 2.83656
lowerneck -0.555993 0.544802 -4.12172
upperneck 12.4651 -0.269254 8.08183
head 3.79421 -0.0726531 3.13639
rclavicle -4.76089e-014 -1.78906e-015
rhumerus -27.7674 -15.1346 -88.8972
rradius 15.655
rwrist 27.9665
rhand -16.1406 12.0123
rfingers 7.12502
rthumb 10.0645 -17.7271
lclavicle -4.76089e-014 -1.78906e-015
lhumerus -33.9938 47.8274 67.0223
lradius 10.5751
lwrist -75.5039
lhand -2.06893 24.6035
lfingers 7.12502
lthumb 23.6073 53.1743
rfemur -16.0314 13.6839 17.6781
rtibia 21.2495
rfoot -3.12339 -36.8872
rtoes -1.54642
lfemur -24.9453 -12.0509 -13.0628
ltibia 23.8019
lfoot -11.2897 16.8507
ltoes -5.44072
8
root -16.6206 16.4916 -3.78654 -156.946 -75.576 171.68
lowerback -12.0519 0.796169 -6.08287
upperback -2.63053 1.72449 -0.919498
thorax 3.83405 0.744102 2.71997
lowerneck -0.615126 0.481734 -3.84902
upperneck 12.5402 -0.351784 7.90993
head 3.8331 -0.106837 3.03582
rclavicle -1.38155e-014 1.59028e-015
rhumerus -27.9788 -15.4613 -88.8764
rradius 15.9537
rwrist 28.0767
rhand -15.8134 11.823
rfingers 7.12502
rthumb 10.3802 -17.9008
lclavicle -1.38155e-014 1.59028e-015
lhumerus -33.7323 47.5389 67.3123
lradius 10.5901
lwrist -75.3762
lhand -2.36123 24.5811
lfingers 7.12502
lthumb 23.3269 53.1878
rfemur -15.9689 13.5549 17.7401
rtibia 21.1693
rfoot -3.31289 -36.8538
rtoes -1.27877
lfemur -25.1264 -11.698 -13.0907
ltibia 24.0346
lfoot -11.2674 16.3204
ltoes -5.57321
9
root -16.611 16.4904 -3.78881 -157.036 -75.7532 171.764
lowerback -11.7353 0.770152 -6.03235
upperback -2.52408 1.67145 -0.871432
thorax 3.77691 0.721673 2.72827
lowerneck -0.765544 0.519464 -3.73235
upperneck 12.5227 -0.259599 7.61152
head 3.84902 -0.0632299 2.92773
rclavicle 1.77415e-014 1.70955e-014
rhumerus -27.8263 -15.4739 -88.8878
rradius 15.9963
rwrist 28.3276
rhand -15.7409 11.837
rfingers 7.12502
rthumb 10.4501 -17.8833
lclavicle 1.77415e-014 1.70955e-014
lhumerus -33.8132 48.2941 67.1281
lradius 10.5361
lwrist -76.0244
lhand -2.9211 24.6873
lfingers 7.12502
lthumb 22.7897 53.3611
rfemur -15.9161 13.3415 17.8478
rtibia 21.1033
rfoot -3.26675 -36.7992
rtoes -1.56845
lfemur -25.3656 -11.6285 -12.9874
ltibia 24.2895
lfoot -11.3758 16.0165
ltoes -4.81369
